<svg width="452" height="269" viewBox="0 0 452 269" fill="none" xmlns="http://www.w3.org/2000/svg">
<mask id="mask0_76_77" style="mask-type:luminance" maskUnits="userSpaceOnUse" x="112" y="11" width="228" height="134">
<path d="M339.535 11.1088H112.325V144.414H339.535V11.1088Z" fill="white"/>
</mask>
<g mask="url(#mask0_76_77)">
<path d="M324.641 26.1504C315.853 17.3644 304.156 12.0934 291.752 11.3293C279.349 10.5653 267.094 14.3609 257.294 22.0019C248.345 15.0492 237.335 11.2739 226.002 11.2717C214.669 11.2695 203.659 15.0405 194.707 21.9898C184.497 13.9787 171.615 10.1665 158.69 11.3313C145.765 12.4962 133.772 18.5503 125.16 28.2577C116.547 37.9652 111.964 50.5938 112.347 63.5654C112.73 76.5371 118.049 88.8738 127.219 98.0562L158.536 129.377C158.56 129.401 158.584 129.424 158.612 129.448C158.639 129.472 158.647 129.483 158.664 129.501C158.697 129.533 158.731 129.563 158.764 129.596C159.262 130.088 159.767 130.568 160.28 131.036C160.544 131.278 160.811 131.512 161.079 131.748C161.297 131.937 161.516 132.125 161.735 132.311C170.662 139.875 181.921 144.137 193.619 144.38C205.318 144.623 216.743 140.833 225.977 133.646C235.777 141.286 248.032 145.082 260.436 144.318C272.839 143.554 284.536 138.283 293.324 129.497L324.642 98.1805C334.179 88.6214 339.535 75.6689 339.535 62.1653C339.535 48.6617 334.179 35.7096 324.641 26.1504ZM225.992 24.5374C233.438 24.5326 240.718 26.737 246.91 30.8713C253.103 35.0056 257.929 40.8841 260.779 47.7628C263.629 54.6415 264.374 62.211 262.92 69.5133C261.466 76.8157 257.879 83.5226 252.611 88.7851L225.992 115.404L199.372 88.7851C194.105 83.5226 190.517 76.8156 189.063 69.5132C187.609 62.2107 188.355 54.6412 191.205 47.7625C194.055 40.8838 198.882 35.0053 205.074 30.871C211.267 26.7367 218.546 24.5325 225.992 24.5374ZM157.028 93.4832C157.015 88.5373 157.982 83.6382 159.875 79.069C161.768 74.4998 164.548 70.3514 168.055 66.8639L175.14 59.7789C174.797 66.8607 175.94 73.936 178.495 80.5497C181.05 87.163 184.961 93.1686 189.977 98.1805L216.052 124.256C210.428 128.195 203.83 130.515 196.978 130.962C190.126 131.41 183.282 129.968 177.194 126.793C171.105 123.618 166.004 118.834 162.448 112.959C158.892 107.085 157.017 100.348 157.027 93.4809L157.028 93.4832ZM136.613 88.6601C129.95 81.9985 126.027 73.0802 125.62 63.6671C125.213 54.2539 128.351 45.0302 134.414 37.8183C140.477 30.6062 149.025 25.9303 158.368 24.7141C167.711 23.4979 177.17 25.83 184.878 31.2495L158.659 57.4678C153.915 62.1864 150.154 67.7992 147.593 73.9813C145.033 80.1633 143.724 86.7919 143.742 93.4832C143.742 94.273 143.76 95.0598 143.797 95.8444L136.613 88.6601ZM257.311 131.128C249.62 131.146 242.11 128.79 235.807 124.381L262.011 98.1805C267.026 93.1686 270.937 87.163 273.492 80.5495C276.047 73.9359 277.19 66.8607 276.848 59.7789L283.933 66.8639C289.198 72.1289 292.782 78.8368 294.235 86.1393C295.688 93.4415 294.942 101.011 292.092 107.89C289.242 114.768 284.417 120.648 278.226 124.784C272.035 128.92 264.757 131.128 257.311 131.128ZM315.247 88.7851L308.188 95.8444C308.223 95.0606 308.242 94.2738 308.243 93.4832C308.261 86.7919 306.952 80.1633 304.392 73.9812C301.831 67.7991 298.069 62.1864 293.325 57.4678L267.125 31.2669C274.846 25.8941 284.299 23.6066 293.622 24.8548C302.945 26.1029 311.464 30.7963 317.5 38.0109C323.536 45.2254 326.652 54.4382 326.235 63.8356C325.818 73.2328 321.898 82.1335 315.247 88.7851Z" fill="url(#paint0_linear_76_77)"/>
</g>
<path d="M87.4715 197.328C88.2714 198.794 89.1823 200.616 90.2043 202.793C91.2707 204.926 92.3594 207.259 93.4703 209.792C94.6256 212.28 95.7587 214.835 96.8696 217.457C97.9805 220.078 99.0247 222.545 100.002 224.855C100.98 222.545 102.024 220.078 103.135 217.457C104.246 214.835 105.357 212.28 106.468 209.792C107.623 207.259 108.712 204.926 109.734 202.793C110.8 200.616 111.733 198.794 112.533 197.328H121.998C122.442 200.394 122.842 203.837 123.197 207.659C123.597 211.436 123.931 215.391 124.197 219.523C124.508 223.611 124.775 227.721 124.997 231.854C125.264 235.986 125.486 239.874 125.664 243.518H115.532C115.399 239.03 115.221 234.142 114.999 228.854C114.777 223.567 114.444 218.234 113.999 212.858C113.2 214.724 112.311 216.79 111.333 219.056C110.356 221.323 109.378 223.589 108.401 225.855C107.467 228.121 106.556 230.299 105.668 232.387C104.779 234.431 104.024 236.186 103.402 237.653H96.1364C95.5143 236.186 94.7589 234.431 93.8702 232.387C92.9815 230.299 92.0483 228.121 91.0708 225.855C90.1376 223.589 89.1823 221.323 88.2047 219.056C87.2271 216.79 86.3384 214.724 85.5386 212.858C85.0942 218.234 84.761 223.567 84.5388 228.854C84.3166 234.142 84.1389 239.03 84.0056 243.518H73.8743C74.0521 239.874 74.252 235.986 74.4742 231.854C74.7408 227.721 75.0074 223.611 75.274 219.523C75.5851 215.391 75.9184 211.436 76.2738 207.659C76.6738 203.837 77.0959 200.394 77.5402 197.328H87.4715ZM132.693 226.255C132.693 223.145 133.159 220.434 134.093 218.123C135.07 215.768 136.337 213.813 137.892 212.258C139.447 210.703 141.224 209.525 143.224 208.725C145.268 207.925 147.356 207.526 149.489 207.526C154.466 207.526 158.399 209.059 161.287 212.125C164.175 215.146 165.619 219.612 165.619 225.522C165.619 226.099 165.597 226.744 165.553 227.455C165.508 228.121 165.464 228.721 165.419 229.254H142.891C143.113 231.298 144.068 232.92 145.757 234.12C147.445 235.32 149.712 235.92 152.555 235.92C154.377 235.92 156.155 235.764 157.888 235.453C159.665 235.098 161.109 234.675 162.22 234.187L163.553 242.252C163.02 242.518 162.309 242.785 161.42 243.051C160.532 243.318 159.532 243.54 158.421 243.718C157.354 243.94 156.199 244.118 154.955 244.251C153.711 244.385 152.467 244.451 151.222 244.451C148.067 244.451 145.312 243.985 142.957 243.051C140.647 242.118 138.714 240.852 137.159 239.252C135.648 237.608 134.515 235.675 133.759 233.453C133.048 231.232 132.693 228.832 132.693 226.255ZM156.021 222.456C155.977 221.611 155.821 220.789 155.555 219.99C155.333 219.19 154.955 218.479 154.422 217.857C153.933 217.235 153.289 216.724 152.489 216.324C151.733 215.924 150.778 215.724 149.623 215.724C148.512 215.724 147.556 215.924 146.757 216.324C145.957 216.679 145.29 217.168 144.757 217.79C144.224 218.412 143.802 219.145 143.491 219.99C143.224 220.789 143.024 221.611 142.891 222.456H156.021ZM181.748 225.722C181.748 228.788 182.437 231.254 183.815 233.12C185.192 234.987 187.236 235.92 189.947 235.92C190.835 235.92 191.657 235.897 192.413 235.853C193.168 235.764 193.79 235.675 194.279 235.586V217.523C193.657 217.124 192.835 216.79 191.813 216.524C190.835 216.257 189.836 216.124 188.814 216.124C184.103 216.124 181.748 219.323 181.748 225.722ZM204.21 242.385C203.322 242.652 202.3 242.918 201.144 243.185C199.989 243.407 198.767 243.607 197.478 243.785C196.234 243.962 194.946 244.096 193.613 244.185C192.324 244.318 191.08 244.385 189.88 244.385C186.992 244.385 184.414 243.962 182.148 243.118C179.882 242.274 177.971 241.074 176.416 239.519C174.861 237.919 173.661 236.009 172.817 233.787C172.017 231.521 171.617 228.988 171.617 226.188C171.617 223.344 171.973 220.789 172.684 218.523C173.395 216.213 174.417 214.257 175.75 212.658C177.083 211.058 178.705 209.836 180.615 208.992C182.57 208.148 184.792 207.725 187.281 207.725C188.658 207.725 189.88 207.859 190.946 208.125C192.057 208.392 193.168 208.77 194.279 209.259V193.395L204.21 191.795V242.385ZM226.773 235.586C228.24 235.586 229.439 235.475 230.373 235.253C231.35 234.987 232.128 234.653 232.705 234.253C233.283 233.809 233.683 233.298 233.905 232.72C234.127 232.143 234.238 231.498 234.238 230.787C234.238 229.277 233.528 228.032 232.106 227.055C230.684 226.033 228.24 224.944 224.774 223.789C223.263 223.256 221.752 222.656 220.241 221.989C218.731 221.278 217.375 220.412 216.176 219.39C214.976 218.323 213.998 217.057 213.243 215.591C212.487 214.08 212.11 212.258 212.11 210.125C212.11 207.992 212.51 206.081 213.309 204.393C214.109 202.66 215.242 201.194 216.709 199.994C218.175 198.794 219.953 197.883 222.041 197.261C224.129 196.594 226.485 196.261 229.106 196.261C232.217 196.261 234.905 196.594 237.171 197.261C239.437 197.928 241.304 198.661 242.77 199.461L239.771 207.659C238.482 206.992 237.038 206.415 235.438 205.926C233.883 205.393 231.995 205.126 229.773 205.126C227.284 205.126 225.485 205.482 224.374 206.192C223.307 206.859 222.774 207.903 222.774 209.325C222.774 210.169 222.974 210.88 223.374 211.458C223.774 212.036 224.329 212.569 225.04 213.058C225.796 213.502 226.64 213.924 227.573 214.324C228.551 214.68 229.617 215.057 230.773 215.457C233.172 216.346 235.26 217.235 237.038 218.123C238.815 218.968 240.282 219.967 241.437 221.123C242.637 222.278 243.525 223.633 244.103 225.189C244.681 226.744 244.97 228.632 244.97 230.854C244.97 235.164 243.459 238.519 240.437 240.919C237.416 243.274 232.861 244.451 226.773 244.451C224.729 244.451 222.885 244.318 221.241 244.051C219.597 243.829 218.131 243.54 216.842 243.185C215.598 242.829 214.509 242.452 213.576 242.052C212.687 241.652 211.932 241.274 211.31 240.919L214.243 232.654C215.62 233.409 217.309 234.098 219.308 234.72C221.352 235.298 223.841 235.586 226.773 235.586ZM262.235 221.123C263.212 220.056 264.212 218.945 265.234 217.79C266.301 216.635 267.323 215.502 268.3 214.391C269.278 213.235 270.189 212.147 271.033 211.125C271.922 210.103 272.677 209.214 273.299 208.459H285.097C282.742 211.169 280.431 213.769 278.165 216.257C275.943 218.701 273.499 221.234 270.833 223.855C272.166 225.055 273.544 226.499 274.965 228.188C276.387 229.832 277.765 231.543 279.098 233.32C280.431 235.098 281.653 236.875 282.764 238.652C283.875 240.43 284.808 242.052 285.563 243.518H274.166C273.455 242.363 272.633 241.096 271.699 239.719C270.811 238.297 269.855 236.897 268.833 235.52C267.811 234.098 266.723 232.743 265.567 231.454C264.457 230.165 263.346 229.077 262.235 228.188V243.518H252.303V193.395L262.235 191.795V221.123ZM300.834 243.518H290.902V208.459H300.834V243.518ZM301.767 198.327C301.767 200.149 301.167 201.593 299.967 202.66C298.812 203.682 297.434 204.193 295.835 204.193C294.235 204.193 292.835 203.682 291.635 202.66C290.48 201.593 289.902 200.149 289.902 198.327C289.902 196.506 290.48 195.084 291.635 194.062C292.835 192.995 294.235 192.462 295.835 192.462C297.434 192.462 298.812 192.995 299.967 194.062C301.167 195.084 301.767 196.506 301.767 198.327ZM324.166 244.185C321.278 244.14 318.923 243.829 317.101 243.251C315.324 242.674 313.902 241.874 312.835 240.852C311.813 239.786 311.102 238.519 310.702 237.053C310.347 235.542 310.169 233.853 310.169 231.987V193.395L320.1 191.795V229.988C320.1 230.876 320.167 231.676 320.3 232.387C320.434 233.098 320.678 233.698 321.034 234.187C321.433 234.675 321.989 235.075 322.7 235.386C323.411 235.697 324.366 235.897 325.566 235.986L324.166 244.185ZM345.256 244.185C342.367 244.14 340.012 243.829 338.19 243.251C336.413 242.674 334.991 241.874 333.925 240.852C332.903 239.786 332.192 238.519 331.792 237.053C331.436 235.542 331.258 233.853 331.258 231.987V193.395L341.19 191.795V229.988C341.19 230.876 341.256 231.676 341.39 232.387C341.523 233.098 341.767 233.698 342.123 234.187C342.523 234.675 343.078 235.075 343.789 235.386C344.5 235.697 345.456 235.897 346.655 235.986L345.256 244.185ZM379.652 215.124C378.852 216.013 377.764 217.212 376.386 218.723C375.053 220.234 373.609 221.9 372.054 223.722C370.498 225.544 368.921 227.455 367.321 229.454C365.766 231.454 364.344 233.387 363.056 235.253H379.985V243.518H350.991V237.653C351.924 236.053 353.035 234.342 354.324 232.52C355.657 230.654 357.035 228.788 358.456 226.922C359.923 225.055 361.367 223.256 362.789 221.523C364.211 219.745 365.522 218.146 366.721 216.724H351.791V208.459H379.652V215.124Z" fill="url(#paint1_linear_76_77)"/>
<defs>
<linearGradient id="paint0_linear_76_77" x1="112.325" y1="77.7701" x2="339.535" y2="77.7701" gradientUnits="userSpaceOnUse">
<stop stop-color="#000428"/>
<stop offset="1" stop-color="#004E92"/>
</linearGradient>
<linearGradient id="paint1_linear_76_77" x1="69.4301" y1="219.018" x2="382.43" y2="219.018" gradientUnits="userSpaceOnUse">
<stop stop-color="#000428"/>
<stop offset="1" stop-color="#004E92"/>
</linearGradient>
</defs>
</svg>
