<svg width="258" height="56" viewBox="0 0 258 56" fill="none" xmlns="http://www.w3.org/2000/svg">
<mask id="mask0_19_106" style="mask-type:luminance" maskUnits="userSpaceOnUse" x="25" y="4" width="82" height="48">
<path d="M106.812 4H25V52H106.812V4Z" fill="white"/>
</mask>
<g mask="url(#mask0_19_106)">
<path d="M101.449 9.41607C98.285 6.25245 94.0733 4.35448 89.607 4.07937C85.141 3.80426 80.7282 5.17097 77.1994 7.9223C73.9771 5.41879 70.0127 4.05942 65.9321 4.05863C61.8514 4.05784 57.8868 5.41568 54.6634 7.91793C50.9873 5.03335 46.3487 3.66065 41.6948 4.08009C37.0409 4.49953 32.7225 6.67947 29.6213 10.1749C26.5202 13.6703 24.87 18.2175 25.0079 22.8883C25.1457 27.559 27.061 32.0012 30.3629 35.3075L41.6392 46.5855C41.648 46.5939 41.6567 46.6021 41.6665 46.6108C41.6764 46.6196 41.6791 46.6237 41.6854 46.63C41.6971 46.6417 41.7097 46.6523 41.7214 46.6641C41.9006 46.8415 42.0826 47.0142 42.2673 47.1826C42.3622 47.2697 42.4583 47.354 42.5549 47.4389C42.6333 47.5072 42.7121 47.5749 42.7913 47.6417C46.0057 50.3653 50.0596 51.9001 54.2718 51.9874C58.4842 52.075 62.5982 50.7103 65.9231 48.1224C69.4519 50.8735 73.8647 52.2404 78.3307 51.9653C82.797 51.6902 87.0087 49.7922 90.1731 46.6286L101.45 35.3523C104.884 31.9103 106.813 27.2464 106.813 22.3841C106.813 17.5218 104.884 12.8581 101.449 9.41607ZM65.9285 8.83527C68.6096 8.83355 71.2309 9.62727 73.4605 11.1159C75.6903 12.6046 77.4281 14.7213 78.4544 17.1981C79.4806 19.675 79.7489 22.4006 79.2254 25.03C78.7019 27.6594 77.4101 30.0743 75.5135 31.9692L65.9285 41.5539L56.3433 31.9692C54.4467 30.0743 53.1549 27.6593 52.6314 25.0299C52.1079 22.4005 52.3762 19.6749 53.4025 17.198C54.4287 14.7212 56.1668 12.6045 58.3964 11.1158C60.6262 9.62719 63.2475 8.83349 65.9285 8.83527ZM41.0964 33.6609C41.0915 31.88 41.4399 30.116 42.1214 28.4707C42.8029 26.8255 43.804 25.3317 45.0668 24.076L47.6179 21.5248C47.4944 24.0748 47.9059 26.6224 48.826 29.0039C49.7461 31.3852 51.1544 33.5476 52.9603 35.3523L62.3493 44.7412C60.3241 46.1597 57.9485 46.9951 55.4811 47.1562C53.0141 47.3172 50.5498 46.7981 48.3574 45.655C46.165 44.5117 44.3285 42.7889 43.048 40.6737C41.7675 38.5587 41.0923 36.1326 41.0958 33.6601L41.0964 33.6609ZM33.7454 31.9242C31.3462 29.5255 29.9338 26.3143 29.7872 22.9249C29.6406 19.5354 30.7704 16.2142 32.9536 13.6174C35.1367 11.0205 38.2144 9.33681 41.5787 8.89889C44.9429 8.46096 48.3491 9.30067 51.1243 11.2521L41.6837 20.6927C39.9754 22.3917 38.621 24.4127 37.699 26.6387C36.7771 28.8647 36.3057 31.2515 36.3124 33.6609C36.3124 33.9453 36.319 34.2286 36.3323 34.5111L33.7454 31.9242ZM77.2057 47.2157C74.4362 47.2222 71.7322 46.3739 69.4628 44.7865L78.8979 35.3523C80.7039 33.5476 82.112 31.3852 83.032 29.0038C83.9521 26.6224 84.3637 24.0748 84.2403 21.5248L86.7914 24.076C88.6872 25.9717 89.978 28.3871 90.5009 31.0165C91.0241 33.6459 90.7555 36.3714 89.7293 38.8483C88.7033 41.3252 86.9658 43.4421 84.7368 44.9315C82.5074 46.4209 79.8867 47.2157 77.2057 47.2157ZM98.0669 31.9692L95.5251 34.5111C95.5379 34.2289 95.5445 33.9456 95.545 33.6609C95.5516 31.2515 95.0802 28.8647 94.1582 26.6387C93.2362 24.4127 91.8817 22.3917 90.1734 20.6927L80.7394 11.2584C83.5195 9.32377 86.9233 8.5001 90.2804 8.94954C93.6375 9.39896 96.7047 11.0889 98.8781 13.6867C101.051 16.2845 102.174 19.6018 102.023 22.9855C101.873 26.3692 100.462 29.5742 98.0669 31.9692Z" fill="url(#paint0_linear_19_106)"/>
</g>
<path d="M126.457 20.368C126.745 20.896 127.073 21.552 127.441 22.336C127.825 23.104 128.217 23.944 128.617 24.856C129.033 25.752 129.441 26.672 129.841 27.616C130.241 28.56 130.617 29.448 130.969 30.28C131.321 29.448 131.697 28.56 132.097 27.616C132.497 26.672 132.897 25.752 133.297 24.856C133.713 23.944 134.105 23.104 134.473 22.336C134.857 21.552 135.193 20.896 135.481 20.368H138.889C139.049 21.472 139.193 22.712 139.321 24.088C139.465 25.448 139.585 26.872 139.681 28.36C139.793 29.832 139.889 31.312 139.969 32.8C140.065 34.288 140.145 35.688 140.209 37H136.561C136.513 35.384 136.449 33.624 136.369 31.72C136.289 29.816 136.169 27.896 136.009 25.96C135.721 26.632 135.401 27.376 135.049 28.192C134.697 29.008 134.345 29.824 133.993 30.64C133.657 31.456 133.329 32.24 133.009 32.992C132.689 33.728 132.417 34.36 132.193 34.888H129.577C129.353 34.36 129.081 33.728 128.761 32.992C128.441 32.24 128.105 31.456 127.753 30.64C127.417 29.824 127.073 29.008 126.721 28.192C126.369 27.376 126.049 26.632 125.761 25.96C125.601 27.896 125.481 29.816 125.401 31.72C125.321 33.624 125.257 35.384 125.209 37H121.561C121.625 35.688 121.697 34.288 121.777 32.8C121.873 31.312 121.969 29.832 122.065 28.36C122.177 26.872 122.297 25.448 122.425 24.088C122.569 22.712 122.721 21.472 122.881 20.368H126.457ZM142.74 30.784C142.74 29.664 142.908 28.688 143.244 27.856C143.596 27.008 144.052 26.304 144.612 25.744C145.172 25.184 145.812 24.76 146.532 24.472C147.268 24.184 148.02 24.04 148.788 24.04C150.58 24.04 151.996 24.592 153.036 25.696C154.076 26.784 154.596 28.392 154.596 30.52C154.596 30.728 154.588 30.96 154.572 31.216C154.556 31.456 154.54 31.672 154.524 31.864H146.412C146.492 32.6 146.836 33.184 147.444 33.616C148.052 34.048 148.868 34.264 149.892 34.264C150.548 34.264 151.188 34.208 151.812 34.096C152.452 33.968 152.972 33.816 153.372 33.64L153.852 36.544C153.66 36.64 153.404 36.736 153.084 36.832C152.764 36.928 152.404 37.008 152.004 37.072C151.62 37.152 151.204 37.216 150.756 37.264C150.308 37.312 149.86 37.336 149.412 37.336C148.276 37.336 147.284 37.168 146.436 36.832C145.604 36.496 144.908 36.04 144.348 35.464C143.804 34.872 143.396 34.176 143.124 33.376C142.868 32.576 142.74 31.712 142.74 30.784ZM151.14 29.416C151.124 29.112 151.068 28.816 150.972 28.528C150.892 28.24 150.756 27.984 150.564 27.76C150.388 27.536 150.156 27.352 149.868 27.208C149.596 27.064 149.252 26.992 148.836 26.992C148.436 26.992 148.092 27.064 147.804 27.208C147.516 27.336 147.276 27.512 147.084 27.736C146.892 27.96 146.74 28.224 146.628 28.528C146.532 28.816 146.46 29.112 146.412 29.416H151.14ZM160.404 30.592C160.404 31.696 160.652 32.584 161.148 33.256C161.644 33.928 162.38 34.264 163.356 34.264C163.676 34.264 163.972 34.256 164.244 34.24C164.516 34.208 164.74 34.176 164.916 34.144V27.64C164.692 27.496 164.396 27.376 164.028 27.28C163.676 27.184 163.316 27.136 162.948 27.136C161.252 27.136 160.404 28.288 160.404 30.592ZM168.492 36.592C168.172 36.688 167.804 36.784 167.388 36.88C166.972 36.96 166.532 37.032 166.068 37.096C165.62 37.16 165.156 37.208 164.676 37.24C164.212 37.288 163.764 37.312 163.332 37.312C162.292 37.312 161.364 37.16 160.548 36.856C159.732 36.552 159.044 36.12 158.484 35.56C157.924 34.984 157.492 34.296 157.188 33.496C156.9 32.68 156.756 31.768 156.756 30.76C156.756 29.736 156.884 28.816 157.14 28C157.396 27.168 157.764 26.464 158.244 25.888C158.724 25.312 159.308 24.872 159.996 24.568C160.7 24.264 161.5 24.112 162.396 24.112C162.892 24.112 163.332 24.16 163.716 24.256C164.116 24.352 164.516 24.488 164.916 24.664V18.952L168.492 18.376V36.592ZM176.616 34.144C177.144 34.144 177.576 34.104 177.912 34.024C178.264 33.928 178.544 33.808 178.752 33.664C178.96 33.504 179.104 33.32 179.184 33.112C179.264 32.904 179.304 32.672 179.304 32.416C179.304 31.872 179.048 31.424 178.536 31.072C178.024 30.704 177.144 30.312 175.896 29.896C175.352 29.704 174.808 29.488 174.264 29.248C173.72 28.992 173.232 28.68 172.8 28.312C172.368 27.928 172.016 27.472 171.744 26.944C171.472 26.4 171.336 25.744 171.336 24.976C171.336 24.208 171.48 23.52 171.768 22.912C172.056 22.288 172.464 21.76 172.992 21.328C173.52 20.896 174.16 20.568 174.912 20.344C175.664 20.104 176.512 19.984 177.456 19.984C178.576 19.984 179.544 20.104 180.36 20.344C181.176 20.584 181.848 20.848 182.376 21.136L181.296 24.088C180.832 23.848 180.312 23.64 179.736 23.464C179.176 23.272 178.496 23.176 177.696 23.176C176.8 23.176 176.152 23.304 175.752 23.56C175.368 23.8 175.176 24.176 175.176 24.688C175.176 24.992 175.248 25.248 175.392 25.456C175.536 25.664 175.736 25.856 175.992 26.032C176.264 26.192 176.568 26.344 176.904 26.488C177.256 26.616 177.64 26.752 178.056 26.896C178.92 27.216 179.672 27.536 180.312 27.856C180.952 28.16 181.48 28.52 181.896 28.936C182.328 29.352 182.648 29.84 182.856 30.4C183.064 30.96 183.168 31.64 183.168 32.44C183.168 33.992 182.624 35.2 181.536 36.064C180.448 36.912 178.808 37.336 176.616 37.336C175.88 37.336 175.216 37.288 174.624 37.192C174.032 37.112 173.504 37.008 173.04 36.88C172.592 36.752 172.2 36.616 171.864 36.472C171.544 36.328 171.272 36.192 171.048 36.064L172.104 33.088C172.6 33.36 173.208 33.608 173.928 33.832C174.664 34.04 175.56 34.144 176.616 34.144ZM189.385 28.936C189.737 28.552 190.097 28.152 190.465 27.736C190.849 27.32 191.217 26.912 191.569 26.512C191.921 26.096 192.249 25.704 192.553 25.336C192.873 24.968 193.145 24.648 193.369 24.376H197.617C196.769 25.352 195.937 26.288 195.121 27.184C194.321 28.064 193.441 28.976 192.481 29.92C192.961 30.352 193.457 30.872 193.969 31.48C194.481 32.072 194.977 32.688 195.457 33.328C195.937 33.968 196.377 34.608 196.777 35.248C197.177 35.888 197.513 36.472 197.785 37H193.681C193.425 36.584 193.129 36.128 192.793 35.632C192.473 35.12 192.129 34.616 191.761 34.12C191.393 33.608 191.001 33.12 190.585 32.656C190.185 32.192 189.785 31.8 189.385 31.48V37H185.809V18.952L189.385 18.376V28.936ZM203.283 37H199.707V24.376H203.283V37ZM203.619 20.728C203.619 21.384 203.403 21.904 202.971 22.288C202.555 22.656 202.059 22.84 201.483 22.84C200.907 22.84 200.403 22.656 199.971 22.288C199.555 21.904 199.347 21.384 199.347 20.728C199.347 20.072 199.555 19.56 199.971 19.192C200.403 18.808 200.907 18.616 201.483 18.616C202.059 18.616 202.555 18.808 202.971 19.192C203.403 19.56 203.619 20.072 203.619 20.728ZM211.685 37.24C210.645 37.224 209.797 37.112 209.141 36.904C208.501 36.696 207.989 36.408 207.605 36.04C207.237 35.656 206.981 35.2 206.837 34.672C206.709 34.128 206.645 33.52 206.645 32.848V18.952L210.221 18.376V32.128C210.221 32.448 210.245 32.736 210.293 32.992C210.341 33.248 210.429 33.464 210.557 33.64C210.701 33.816 210.901 33.96 211.157 34.072C211.413 34.184 211.757 34.256 212.189 34.288L211.685 37.24ZM219.278 37.24C218.238 37.224 217.39 37.112 216.734 36.904C216.094 36.696 215.582 36.408 215.198 36.04C214.83 35.656 214.574 35.2 214.43 34.672C214.302 34.128 214.238 33.52 214.238 32.848V18.952L217.814 18.376V32.128C217.814 32.448 217.838 32.736 217.886 32.992C217.934 33.248 218.022 33.464 218.15 33.64C218.294 33.816 218.494 33.96 218.75 34.072C219.006 34.184 219.35 34.256 219.782 34.288L219.278 37.24ZM231.664 26.776C231.376 27.096 230.984 27.528 230.488 28.072C230.008 28.616 229.488 29.216 228.928 29.872C228.368 30.528 227.8 31.216 227.224 31.936C226.664 32.656 226.152 33.352 225.688 34.024H231.784V37H221.344V34.888C221.68 34.312 222.08 33.696 222.544 33.04C223.024 32.368 223.52 31.696 224.032 31.024C224.56 30.352 225.08 29.704 225.592 29.08C226.104 28.44 226.576 27.864 227.008 27.352H221.632V24.376H231.664V26.776Z" fill="url(#paint1_linear_19_106)"/>
<defs>
<linearGradient id="paint0_linear_19_106" x1="24.9999" y1="28.003" x2="106.813" y2="28.003" gradientUnits="userSpaceOnUse">
<stop stop-color="#000428"/>
<stop offset="1" stop-color="#004E92"/>
</linearGradient>
<linearGradient id="paint1_linear_19_106" x1="119.812" y1="28" x2="232.812" y2="28" gradientUnits="userSpaceOnUse">
<stop stop-color="#000428"/>
<stop offset="1" stop-color="#004E92"/>
</linearGradient>
</defs>
</svg>
