<svg width="37" height="37" viewBox="0 0 37 37" fill="none" xmlns="http://www.w3.org/2000/svg">
<rect width="37" height="37" rx="7" fill="#CEE2FE"/>
<path d="M14.75 15.3125C14.75 12.547 16.5364 10.5 18.5 10.5C20.4636 10.5 22.25 12.547 22.25 15.3125C22.25 18.078 20.4636 20.125 18.5 20.125C16.5364 20.125 14.75 18.078 14.75 15.3125ZM10.5 24.875C10.5 22.9287 11.9725 21.3446 13.8543 21.1421C15.0649 22.4216 16.6978 23.25 18.5 23.25C20.3023 23.25 21.9352 22.4215 23.1459 21.1419C25.0445 21.3434 26.5 22.9262 26.5 24.875V26.5H10.5V24.875Z" stroke="#2C6CCB"/>
</svg>
