<svg width="119" height="120" viewBox="0 0 119 120" fill="none" xmlns="http://www.w3.org/2000/svg">
<g clip-path="url(#clip0_40_21)">
<path d="M69.317 75.0555C73.916 73.8629 77.911 71.2399 80.8702 67.4701C84.4985 62.848 86.107 57.0761 85.3995 51.2177C84.6919 45.3604 81.7537 40.1456 77.1298 36.543C72.6499 33.0505 67.065 31.4979 61.4039 32.1712C55.743 32.8445 50.6664 35.665 47.1092 40.1129C44.0598 43.9261 42.3966 48.5256 42.2994 53.4141C42.1417 61.3502 39.4372 69.0556 34.684 75.1108L29.483 81.7364C27.176 84.6753 27.6636 88.9642 30.57 91.297L35.4727 95.2322C38.3791 97.5651 42.6206 97.0718 44.9274 94.1331L50.1281 87.5079C54.934 81.3859 61.555 77.0681 69.317 75.0555ZM45.0723 53.4706C45.157 49.2103 46.607 45.2011 49.2656 41.8765C55.6529 33.8897 67.3929 32.4935 75.4363 38.7641C79.4691 41.9127 82.0296 46.4517 82.6462 51.5578C83.2632 56.6652 81.8609 61.6971 78.6978 65.7266C76.118 69.0131 72.636 71.2996 68.628 72.339C60.4494 74.4598 53.4182 78.949 48.2611 85.3359L37.1772 76.4393C42.1063 69.9715 44.906 61.8367 45.0723 53.4706ZM32.2396 82.7357L32.9376 81.8465L43.0282 92.0419L42.7553 92.3896C42.6116 92.5726 42.4528 92.7359 42.286 92.8863L32.2396 82.7357ZM34.6732 79.6355L35.4559 78.6384L46.5559 87.5479L44.7638 89.8309L34.6732 79.6355ZM32.2942 89.1005C31.1274 88.164 30.625 86.6913 30.8549 85.3011L39.3552 93.8896C38.593 93.8319 37.8396 93.5514 37.1972 93.0357L32.2943 89.1004L32.2942 89.1005Z" fill="black"/>
<path d="M51.8901 46.9017C52.2565 46.2589 52.6796 45.636 53.1478 45.0508C53.6294 44.4486 53.5371 43.5658 52.9416 43.0787C52.3499 42.5952 51.473 42.6851 50.9914 43.2872C50.4321 43.9865 49.926 44.7313 49.4871 45.5012C49.1396 46.1108 49.2958 46.8742 49.825 47.299C49.8783 47.3417 49.9354 47.3811 49.9961 47.4165C50.6596 47.803 51.5076 47.5727 51.8901 46.9017Z" fill="black"/>
<path d="M45.1863 68.7152C45.2986 68.8054 45.4271 68.8793 45.5691 68.9324C46.2877 69.2003 47.085 68.8284 47.3498 68.1019C49.0518 63.4341 49.9649 58.5454 50.0637 53.5719C50.0801 52.7498 50.1666 51.9296 50.3212 51.1339C50.4688 50.3739 49.979 49.6371 49.2274 49.4878C48.476 49.3387 47.7471 49.8339 47.5995 50.5939C47.4143 51.5485 47.3104 52.5314 47.2908 53.5157C47.1982 58.1764 46.3427 62.7575 44.7478 67.1317C44.5352 67.7147 44.7298 68.3488 45.1863 68.7152Z" fill="black"/>
<path d="M72.3878 66.7919C72.0253 66.1097 71.1843 65.8539 70.5098 66.2205C69.5314 66.7524 68.4811 67.1657 67.3881 67.449C66.6463 67.6413 66.1991 68.4055 66.3893 69.1556C66.4673 69.4637 66.6409 69.7214 66.8695 69.9049C67.1978 70.1684 67.6398 70.279 68.0771 70.1655C69.3869 69.8259 70.6471 69.3296 71.8227 68.6909C72.4974 68.3243 72.7505 67.4741 72.3878 66.7919Z" fill="black"/>
<path d="M72.548 42.8885C78.5366 47.6953 79.5412 56.5326 74.7876 62.5883C74.5174 62.9326 74.2294 63.2669 73.9318 63.5821C73.4028 64.1422 73.4229 65.0296 73.9767 65.5646C74.0081 65.5948 74.0402 65.6232 74.0736 65.65C74.6286 66.0955 75.4382 66.0476 75.9373 65.5191C76.2931 65.1423 76.6372 64.7429 76.9599 64.3319C82.6643 57.065 81.4587 46.4601 74.2723 40.6919C73.6724 40.2104 72.8001 40.3118 72.324 40.9184C71.8478 41.5249 71.9481 42.407 72.548 42.8885Z" fill="black"/>
<path d="M78.8632 34.8433C79.463 35.3248 80.3353 35.2234 80.8115 34.6168L85.6395 28.4663C86.1157 27.8597 86.0154 26.9776 85.4155 26.4961C84.8157 26.0147 83.9434 26.1161 83.4672 26.7226L78.6392 32.8732C78.1631 33.4797 78.2633 34.3618 78.8632 34.8433Z" fill="black"/>
<path d="M66.1716 28.1936C66.0963 28.7077 66.3066 29.1976 66.682 29.4989C66.8662 29.6468 67.0902 29.7493 67.3397 29.7867C68.0972 29.9003 68.8026 29.3716 68.915 28.6056L70.055 20.8411C70.1674 20.0748 69.6445 19.3617 68.887 19.248C68.1294 19.1344 67.424 19.6631 67.3116 20.4291L66.1716 28.1936Z" fill="black"/>
<path d="M77.3469 84.9761L74.4941 77.6757C74.2127 76.9552 73.407 76.6022 72.6948 76.887C71.9825 77.1715 71.6332 77.9861 71.9147 78.7065L74.7675 86.0068C74.8602 86.2439 75.0096 86.4412 75.1939 86.5892C75.5693 86.8905 76.0891 86.9864 76.5669 86.7955C77.2791 86.511 77.6283 85.6963 77.3469 84.9761Z" fill="black"/>
<path d="M50.2067 23.1485L53.0595 30.4489C53.1521 30.686 53.3015 30.8833 53.4859 31.0313C53.8613 31.3326 54.3811 31.4285 54.8588 31.2376C55.5711 30.9531 55.9204 30.1385 55.6388 29.4181L52.7861 22.1178C52.5048 21.3974 51.6991 21.0443 50.9867 21.329C50.2745 21.6136 49.9253 22.428 50.2067 23.1485Z" fill="black"/>
<path d="M90.8137 73.9733L84.7313 69.0912C84.1315 68.6097 83.2592 68.7111 82.783 69.3177C82.3069 69.9242 82.4072 70.8063 83.007 71.2878L89.0894 76.1699C89.6892 76.6514 90.5616 76.55 91.0377 75.9434C91.5138 75.3368 91.4137 74.4549 90.8137 73.9733Z" fill="black"/>
<path d="M44.7708 38.8067C45.2469 38.2001 45.1466 37.318 44.5468 36.8365L38.4643 31.9544C37.8645 31.4729 36.9922 31.5744 36.516 32.1809C36.0399 32.7875 36.1402 33.6696 36.74 34.151L42.8225 39.0332C43.4224 39.5148 44.2946 39.4132 44.7708 38.8067Z" fill="black"/>
<path d="M88.2939 58.9702C88.4781 59.118 88.7021 59.2205 88.9516 59.2579L96.6301 60.4106C97.3876 60.5243 98.093 59.9956 98.2055 59.2295C98.3179 58.4635 97.7948 57.7501 97.0375 57.6365L89.3589 56.4838C88.6014 56.3701 87.896 56.8989 87.7836 57.6649C87.7081 58.1787 87.9186 58.669 88.2939 58.9702Z" fill="black"/>
<path d="M38.6021 48.8667L30.9236 47.7139C30.166 47.6002 29.4606 48.129 29.3482 48.895C29.2728 49.4088 29.4831 49.8989 29.8585 50.2002C30.0427 50.3481 30.2668 50.4506 30.5162 50.488L38.1947 51.6408C38.9522 51.7544 39.6577 51.2257 39.7701 50.4597C39.8828 49.6936 39.3593 48.9801 38.6021 48.8667Z" fill="black"/>
<path d="M86.3488 45.0446C86.4415 45.2818 86.5909 45.479 86.7753 45.627C87.1506 45.9283 87.6704 46.0242 88.1482 45.8334L95.3677 42.9486C96.0799 42.6641 96.4291 41.8494 96.1477 41.1292C95.8664 40.409 95.0607 40.0557 94.3483 40.3404L87.1289 43.2251C86.4166 43.5097 86.0674 44.3244 86.3488 45.0446Z" fill="black"/>
</g>
<defs>
<clipPath id="clip0_40_21">
<rect width="84.6574" height="84.8716" fill="white" transform="matrix(0.779855 0.62596 -0.617464 0.786599 52.4052 0)"/>
</clipPath>
</defs>
</svg>
